<svg width="14" height="18" viewBox="0 0 14 18" fill="none" xmlns="http://www.w3.org/2000/svg">
    <path d="M9.81248 4.5C9.81248 5.24592 9.51617 5.96129 8.98872 6.48874C8.46127 7.01618 7.7459 7.3125 6.99998 7.3125C6.25406 7.3125 5.53869 7.01618 5.01124 6.48874C4.4838 5.96129 4.18748 5.24592 4.18748 4.5C4.18748 3.75408 4.4838 3.03871 5.01124 2.51126C5.53869 1.98382 6.25406 1.6875 6.99998 1.6875C7.7459 1.6875 8.46127 1.98382 8.98872 2.51126C9.51617 3.03871 9.81248 3.75408 9.81248 4.5ZM1.37573 15.0885C1.39983 13.6128 2.00299 12.2056 3.05512 11.1705C4.10724 10.1354 5.52405 9.55535 6.99998 9.55535C8.47592 9.55535 9.89272 10.1354 10.9448 11.1705C11.997 12.2056 12.6001 13.6128 12.6242 15.0885C10.8598 15.8976 8.94109 16.3151 6.99998 16.3125C4.99298 16.3125 3.08798 15.8745 1.37573 15.0885Z" stroke="black" stroke-width="1.5" stroke-linecap="round" stroke-linejoin="round"/>
</svg>
