<svg width="16" height="18" viewBox="0 0 16 18" fill="none" xmlns="http://www.w3.org/2000/svg">
    <path d="M10.8125 7.875V4.5C10.8125 3.75408 10.5162 3.03871 9.98879 2.51126C9.46134 1.98382 8.74597 1.6875 8.00005 1.6875C7.25413 1.6875 6.53876 1.98382 6.01131 2.51126C5.48387 3.03871 5.18755 3.75408 5.18755 4.5V7.875M13.7046 6.38025L14.6518 15.3802C14.7043 15.879 14.3143 16.3125 13.8125 16.3125H2.18755C2.06921 16.3126 1.95216 16.2879 1.84401 16.2398C1.73586 16.1917 1.63904 16.1215 1.55982 16.0336C1.4806 15.9456 1.42076 15.842 1.38419 15.7295C1.34762 15.6169 1.33514 15.4979 1.34755 15.3802L2.29555 6.38025C2.31742 6.17292 2.41527 5.98103 2.57024 5.84157C2.72521 5.70211 2.92632 5.62496 3.1348 5.625H12.8653C13.2973 5.625 13.6596 5.95125 13.7046 6.38025ZM5.4688 7.875C5.4688 7.94959 5.43917 8.02113 5.38642 8.07387C5.33368 8.12662 5.26214 8.15625 5.18755 8.15625C5.11296 8.15625 5.04142 8.12662 4.98868 8.07387C4.93593 8.02113 4.9063 7.94959 4.9063 7.875C4.9063 7.80041 4.93593 7.72887 4.98868 7.67613C5.04142 7.62338 5.11296 7.59375 5.18755 7.59375C5.26214 7.59375 5.33368 7.62338 5.38642 7.67613C5.43917 7.72887 5.4688 7.80041 5.4688 7.875ZM11.0938 7.875C11.0938 7.94959 11.0642 8.02113 11.0114 8.07387C10.9587 8.12662 10.8871 8.15625 10.8125 8.15625C10.738 8.15625 10.6664 8.12662 10.6137 8.07387C10.5609 8.02113 10.5313 7.94959 10.5313 7.875C10.5313 7.80041 10.5609 7.72887 10.6137 7.67613C10.6664 7.62338 10.738 7.59375 10.8125 7.59375C10.8871 7.59375 10.9587 7.62338 11.0114 7.67613C11.0642 7.72887 11.0938 7.80041 11.0938 7.875Z" stroke="black" stroke-width="1.5" stroke-linecap="round" stroke-linejoin="round"/>
</svg>
