<svg width="21" height="22" viewBox="0 0 21 22" fill="none" xmlns="http://www.w3.org/2000/svg">
<path d="M7.9375 7.75V3.6875C7.9375 3.04103 8.19431 2.42105 8.65143 1.96393C9.10855 1.50681 9.72854 1.25 10.375 1.25H16.875C17.5215 1.25 18.1415 1.50681 18.5986 1.96393C19.0557 2.42105 19.3125 3.04103 19.3125 3.6875V18.3125C19.3125 18.959 19.0557 19.579 18.5986 20.0361C18.1415 20.4932 17.5215 20.75 16.875 20.75H10.375C9.72854 20.75 9.10855 20.4932 8.65143 20.0361C8.19431 19.579 7.9375 18.959 7.9375 18.3125V14.25M4.6875 14.25L1.4375 11M1.4375 11L4.6875 7.75M1.4375 11H15.25" stroke="black" stroke-width="1.5" stroke-linecap="round" stroke-linejoin="round"/>
</svg>
