<svg width="28" height="28" viewBox="0 0 28 28" fill="none" xmlns="http://www.w3.org/2000/svg">
<path d="M9.75 15.0625L12.9375 18.25L18.25 10.8125M26.75 14C26.75 15.6744 26.4202 17.3323 25.7795 18.8792C25.1387 20.4261 24.1996 21.8317 23.0156 23.0156C21.8317 24.1996 20.4261 25.1387 18.8792 25.7795C17.3323 26.4202 15.6744 26.75 14 26.75C12.3256 26.75 10.6677 26.4202 9.12079 25.7795C7.57388 25.1387 6.16834 24.1996 4.98439 23.0156C3.80044 21.8317 2.86128 20.4261 2.22054 18.8792C1.57979 17.3323 1.25 15.6744 1.25 14C1.25 10.6185 2.5933 7.37548 4.98439 4.98439C7.37548 2.5933 10.6185 1.25 14 1.25C17.3815 1.25 20.6245 2.5933 23.0156 4.98439C25.4067 7.37548 26.75 10.6185 26.75 14Z" stroke="#4DB45E" stroke-width="1.5" stroke-linecap="round" stroke-linejoin="round"/>
</svg>
