<svg width="40" height="13" viewBox="0 0 40 13" fill="none" xmlns="http://www.w3.org/2000/svg">
<path d="M26.0535 0.0538635C23.2133 0.0538635 20.6752 1.52436 20.6752 4.24123C20.6752 7.35693 25.1766 7.57211 25.1766 9.13736C25.1766 9.79642 24.4205 10.3864 23.1291 10.3864C21.2963 10.3864 19.9265 9.56204 19.9265 9.56204L19.3404 12.3037C19.3404 12.3037 20.9184 13 23.0135 13C26.1186 13 28.562 11.4573 28.562 8.694C28.562 5.40168 24.0419 5.19286 24.0419 3.74007C24.0419 3.22372 24.6626 2.65806 25.9503 2.65806C27.4032 2.65806 28.5886 3.2576 28.5886 3.2576L29.1622 0.609691C29.1622 0.609691 27.8724 0.0538635 26.0535 0.0538635ZM0.0687888 0.253725L0 0.653407C0 0.653407 1.19487 0.871826 2.27103 1.30758C3.65666 1.80722 3.7554 2.09811 3.98875 3.00154L6.53169 12.7939H9.94062L15.1923 0.253725H11.7912L8.4167 8.77984L7.03972 1.55268C6.91343 0.72556 6.27375 0.253725 5.49077 0.253725H0.0687888ZM16.5599 0.253725L13.8919 12.7939H17.1351L19.7937 0.253685H16.5599V0.253725ZM34.6483 0.253725C33.8663 0.253725 33.4519 0.671965 33.1479 1.40282L28.3964 12.7939H31.7974L32.4555 10.8953H36.5989L36.9991 12.7939H40L37.382 0.253725H34.6483ZM35.0906 3.64168L36.0988 8.34736H33.3979L35.0906 3.64168Z" fill="#1434CB"/>
</svg>
