<svg width="40" height="12" viewBox="0 0 40 12" fill="none" xmlns="http://www.w3.org/2000/svg">
<g clip-path="url(#clip0_220_168)">
<path d="M10.779 0.681732V0.686676C10.774 0.686676 9.21606 0.681732 8.80059 2.16953C8.41975 3.53375 7.34647 7.29855 7.31679 7.40235H7.02003C7.02003 7.40235 5.92202 3.55352 5.53623 2.16458C5.12076 0.676789 3.55783 0.681732 3.55783 0.681732H0V11.9975H3.55948V5.27688H3.85624L5.93356 11.9975H8.40491L10.4822 5.28182H10.779V11.9975H14.3385V0.681732H10.779ZM23.782 0.681732C23.782 0.681732 22.7384 0.775646 22.2488 1.86807L19.728 7.40235H19.4312V0.681732H15.8717V11.9975H19.2334C19.2334 11.9975 20.3264 11.8987 20.8161 10.8113L23.2875 5.27693H23.5843V11.9975H27.1437V0.681732H23.782ZM28.7264 5.82064V11.9975H32.2859V8.39092H36.1422C37.8238 8.39092 39.2466 7.31832 39.7758 5.82229H28.7264V5.82064Z" fill="#4DB45E"/>
<path d="M36.1435 0.681732H28.2266C28.6222 2.83681 30.2395 4.56516 32.33 5.12864C32.8154 5.26001 33.316 5.32651 33.8188 5.32641H39.9205C39.9749 5.06938 39.9997 4.80741 39.9997 4.53555C39.9997 2.40678 38.2735 0.681732 36.1435 0.681732Z" fill="url(#paint0_linear_220_168)"/>
</g>
<defs>
<linearGradient id="paint0_linear_220_168" x1="28.2265" y1="3.00406" x2="39.9997" y2="3.00406" gradientUnits="userSpaceOnUse">
<stop offset="0.3" stop-color="#00B4E6"/>
<stop offset="1" stop-color="#088CCB"/>
</linearGradient>
<clipPath id="clip0_220_168">
<rect width="40" height="11.3208" fill="white" transform="translate(0 0.67926)"/>
</clipPath>
</defs>
</svg>
